OpenSim_Sub09_EMGBaseline_GRF.mot
version=1
nRows=57
nColumns=19
inDegrees=no
endheader
time	lFx	lFy	lFz	lCOPx	lCOPy	lCOPz	rFx	rFy	rFz	rCOPx	rCOPy	rCOPz	lMx	lMy	lMz	rMx	rMy	rMz
54.75000000	-0.10102859	650.10362097	54.04680703	1.12040549	0	-0.65364227	-0.09431207	-0.19260917	-0.06806493	0.00043604	0	-0.00018833	0	-3.24998188	0	0	-0.00002611	-0.00000000
54.76000000	2.22029068	654.27688368	54.21197328	1.11478779	0	-0.65417403	-0.14223720	-0.26744603	-0.09487448	0.00009047	0	-0.00003819	0	-3.98658373	0	0	-0.00000979	0.00000000
54.77000000	4.94502910	659.53359733	54.39628469	1.10893077	0	-0.65464650	-0.15180934	-0.30228583	-0.05287290	-0.00004201	0	0.00001886	0	-4.82367302	0	0	-0.00000102	0.00000000
54.78000000	7.96470539	666.07064319	54.58917642	1.10289406	0	-0.65510694	-0.13869161	-0.29003210	-0.03007484	-0.00005775	0	0.00002528	0	-5.68374091	0	0	0.00000176	0.00000000
54.79000000	11.00499922	673.73427251	54.90309244	1.09685860	0	-0.65554396	-0.10634747	-0.18647120	-0.06171465	-0.00003551	0	0.00001542	0	-6.53306251	0	0	0.00000169	-0.00000000
54.80000000	14.00419292	682.01114062	55.34329503	1.09086617	0	-0.65594951	-0.06688271	0.02081515	-0.06606860	-0.00001341	0	0.00000577	0	-7.34561214	0	0	0.00000090	0.00000000
54.81000000	17.09624518	690.38829277	55.78380998	1.08497135	0	-0.65632573	-0.05152169	0.27674879	-0.03927392	-0.00000146	0	0.00000059	0	-8.10444050	0	0	0.00000028	0.00000000
54.82000000	20.36782681	698.49125832	56.12659217	1.07919523	0	-0.65665486	-0.04673639	0.43878518	0.01147373	0.00000236	0	-0.00000105	0	-8.79096204	0	0	-0.00000001	0.00000000
54.83000000	23.61498693	706.14837525	56.41166046	1.07364486	0	-0.65696037	-0.02498288	0.42695792	0.06344661	0.00000229	0	-0.00000100	0	-9.42489791	0	0	-0.00000008	-0.00000000
54.84000000	26.71210520	713.16763344	56.77421682	1.06839030	0	-0.65729473	-0.00808878	0.38366826	0.08226776	0.00000123	0	-0.00000053	0	-10.03684544	0	0	-0.00000006	0.00000000
54.85000000	29.76118036	719.30685928	57.24503225	1.06325475	0	-0.65770249	-0.00822049	0.39339424	0.09061009	0.00000039	0	-0.00000017	0	-10.62300851	0	0	-0.00000004	0.00000000
54.86000000	32.77346406	724.23555019	57.78042226	1.05801882	0	-0.65817109	-0.02510051	0.47503863	0.04643913	-0.00000002	0	0.00000001	0	-11.16638707	0	0	-0.00000002	-0.00000000
54.87000000	35.59615325	727.80387116	58.32064749	1.05285798	0	-0.65869275	-0.01550863	0.57147848	-0.00365555	-0.00000016	0	0.00000006	0	-11.63707766	0	0	-0.00000003	0.00000000
54.88000000	38.02066365	730.03399890	58.78442698	1.04797293	0	-0.65926601	-0.00550571	0.56480371	-0.03929236	-0.00000020	0	0.00000007	0	-12.00145600	0	0	-0.00000002	-0.00000000
54.89000000	40.09928873	730.79708319	59.09515568	1.04334616	0	-0.65987210	-0.02209987	0.44301973	-0.08123074	-0.00000020	0	0.00000007	0	-12.21702128	0	0	0.00000004	0.00000000
54.90000000	41.97518983	729.95971855	59.36342341	1.03898525	0	-0.66052830	-0.03407568	0.35889733	-0.08714421	-0.00000008	0	0.00000003	0	-12.31845925	0	0	0.00000021	0.00000000
54.91000000	43.79902869	727.43703408	59.61586013	1.03487184	0	-0.66125814	-0.02725602	0.31751988	-0.07153295	0.00000039	0	-0.00000012	0	-12.35454798	0	0	0.00000048	0.00000000
54.92000000	45.56126684	723.57644008	59.93529446	1.03111338	0	-0.66205136	-0.00399408	0.25559968	-0.08627399	0.00000146	0	-0.00000046	0	-12.36966477	0	0	0.00000067	-0.00000000
54.93000000	47.32988264	718.99603034	60.38793366	1.02768439	0	-0.66287284	-0.01297344	0.17150847	-0.11679574	0.00000299	0	-0.00000095	0	-12.31968237	0	0	0.00000024	0.00000000
54.94000000	49.18805562	714.33703761	60.95309547	1.02438697	0	-0.66373284	-0.04387462	0.08818491	-0.11994466	0.00000362	0	-0.00000117	0	-12.12997424	0	0	-0.00000181	-0.00000000
54.95000000	51.10976421	709.96664587	61.65510208	1.02101688	0	-0.66463499	-0.08687023	0.05565085	-0.12177761	-0.00000025	0	0.00000000	0	-11.82282624	0	0	-0.00000644	0.00000000
54.96000000	52.98859315	706.03891765	62.40209707	1.01746780	0	-0.66555231	-0.10460162	0.08461933	-0.12456068	-0.00001450	0	0.00000445	0	-11.44170112	0	0	-0.00001284	-0.00000000
54.97000000	54.82398134	702.71313342	62.97479514	1.01359220	0	-0.66643443	-0.10630047	0.14823555	-0.07065977	-0.00004341	0	0.00001361	0	-11.01109205	0	0	-0.00001485	0.00000000
54.98000000	56.97036790	700.19214594	63.07136931	1.00925589	0	-0.66720219	-0.10159738	0.21174920	-0.00628506	-0.00007780	0	0.00002473	0	-10.55470991	0	0	0.00000325	0.00000000
54.99000000	59.86141901	698.60150946	62.45073826	1.00437101	0	-0.66779866	-0.07671592	0.19549550	-0.00044048	-0.00007338	0	0.00002406	0	-10.06896136	0	0	0.00006626	-0.00000000
55	63.61159314	697.39358558	61.11267532	0.99903699	0	-0.66820926	-0.02129415	0.10675623	-0.03204505	0.00007057	0	-0.00002019	0	-9.53601890	0	0	0.00019036	-0.00000000
55.01000000	67.71571158	695.04847152	59.30981456	0.99347118	0	-0.66846974	0.03068091	0.04247482	-0.07454534	0.00049411	0	-0.00015298	0	-8.98605530	0	0	0.00033104	-0.00000000
55.02000000	71.68416890	689.73435567	57.24584813	0.98785492	0	-0.66861441	0.05916209	0.07279494	-0.07136548	0.00124381	0	-0.00039139	0	-8.48667697	0	0	0.00029079	0.00000000
55.03000000	75.24813112	679.79288468	54.95444023	0.98227763	0	-0.66867700	0.05990367	0.20129160	0.00544996	0.00193104	0	-0.00061714	0	-8.03661480	0	0	-0.00036576	-0.00000000
55.04000000	78.17568210	663.95549116	52.38935820	0.97691115	0	-0.66870149	0.02527655	0.31580699	0.04054237	0.00119041	0	-0.00040364	0	-7.61431124	0	0	-0.00222147	0.00000000
55.05000000	80.15193064	641.60102148	49.46823589	0.97188056	0	-0.66870887	-0.06177552	0.14011116	0.02064943	-0.00368098	0	0.00110543	0	-7.19058036	0	0	-0.00540825	-0.00000000
55.06000000	80.91687105	612.53894585	45.95518278	0.96699350	0	-0.66863600	-0.21104732	-0.73204935	-0.04836508	-0.01577351	0	0.00491192	0	-6.73643072	0	0	-0.00811954	0.00000000
55.07000000	80.40300668	576.80450358	41.63201901	0.96217738	0	-0.66838632	-0.39806259	-2.62253662	-0.16597356	-0.03429116	0	0.01083322	0	-6.25095351	0	0	-0.00432913	0.00000000
55.08000000	78.72825432	534.98535354	36.59025009	0.95762875	0	-0.66793534	-0.44727851	-5.14514382	-0.29568666	-0.04508069	0	0.01451193	0	-5.75787814	0	0	0.01754612	0.00000000
55.09000000	75.99261737	488.35564073	31.32631980	0.95350594	0	-0.66734330	0.12805825	-5.80354444	-0.40164188	-0.00786763	0	0.00331172	0	-5.30624714	0	0	0.07008672	0.00000000
55.10000000	72.23780440	438.35916905	26.36271633	0.94959503	0	-0.66678096	2.09631311	1.76215837	-0.15526762	0.14687461	0	-0.04489742	0	-4.96368550	0	0	0.14785286	-0.00000000
55.11000000	67.46637496	386.12372832	21.93003308	0.94535890	0	-0.66644861	6.02236175	27.31736597	1.07565213	0.47910239	0	-0.14989269	0	-4.76188602	0	0	0.18650108	-0.00000000
55.12000000	61.40035819	332.66711344	17.97550836	0.94064847	0	-0.66664648	10.22661183	77.85498981	3.71870508	0.91293514	0	-0.28958983	0	-4.70652711	0	0	0.01297655	0.00000000
55.13000000	53.73448961	279.60243833	14.41060107	0.93669801	0	-0.66814678	7.15428280	149.29313034	7.05112059	1.22085775	0	-0.39179087	0	-4.79362340	0	0	-0.29543597	0
55.14000000	44.57331817	229.22783750	11.37216825	0.93576443	0	-0.67225842	-7.86173081	229.19608732	9.05576383	1.35388003	0	-0.43703200	0	-5.01882127	0	0	-0.54835665	0.00000000
55.15000000	34.70581433	183.67662751	8.98396017	0.93960976	0	-0.68013177	-30.98345383	306.12055149	7.31292707	1.38133287	0	-0.44573260	0	-5.38383227	0	0	-0.63395162	0
55.16000000	25.17004391	143.97158747	7.17975238	0.94561969	0	-0.69023354	-53.28321610	373.11244548	1.15330286	1.37019416	0	-0.43965377	0	-5.79826827	0	0	-0.68179497	0
55.17000000	16.88023945	110.30622214	5.88094801	0.94198457	0	-0.69372014	-69.82249979	427.38764439	-8.46986901	1.35433646	0	-0.43132630	0	-6.13098629	0	0	-0.71499347	0
55.18000000	10.22020403	82.36073532	4.91170688	0.90184435	0	-0.66903699	-82.40211079	470.56238532	-20.25047914	1.34301657	0	-0.42521198	0	-6.13494429	0	0	-0.74350824	0
55.19000000	5.03454464	59.41417298	4.09744928	0.78325786	0	-0.58312588	-93.70635227	507.36001537	-32.51759730	1.33627564	0	-0.42155049	0	-5.49679175	0	0	-0.71989014	0
55.20000000	1.48084257	40.44109672	3.12478278	0.56067774	0	-0.41607303	-103.88266199	540.10563589	-42.98178852	1.33230853	0	-0.41956403	0	-4.01494026	0	0	-0.88973678	0.00000000
55.21000000	-0.04635801	24.75730606	1.56728313	0.29299961	0	-0.21587720	-111.89005286	569.40768189	-49.93881577	1.32954786	0	-0.41847076	0	-2.10789094	0	0	-1.05975042	-0.00000000
55.22000000	0.60925446	12.53195220	-0.44695939	0.09112287	0	-0.06629230	-117.75611049	596.50146611	-54.32104015	1.32649395	0	-0.41790357	0	-0.65751611	0	0	-1.26991489	0
55.23000000	2.58515068	4.52449879	-2.38625348	-0.00376258	0	0.00345426	-120.21427142	622.02529337	-56.70055409	1.32233604	0	-0.41767383	0	0.02548586	0	0	-1.51341726	0
55.24000000	4.21502359	0.83731428	-3.33424272	-0.02706627	0	0.02026920	-118.46927929	645.44956713	-57.27556056	1.31695790	0	-0.41765865	0	0.19396016	0	0	-1.80443986	-0.00000000
55.25000000	5.00957298	-0.05716010	-3.50324469	-0.02084175	0	0.01543995	-113.33824340	665.44370997	-56.77611117	1.31050514	0	-0.41776868	0	0.14974405	0	0	-2.02964591	-0.00000000
55.26000000	5.22711123	0.21326687	-3.52197845	-0.00967482	0	0.00710979	-105.87583127	680.73543765	-56.28420509	1.30339120	0	-0.41786513	0	0.06964521	0	0	-2.13311270	0
55.27000000	5.17209081	0.71732090	-3.34748222	-0.00230814	0	0.00166353	-97.13773499	691.13444997	-56.51112696	1.29589853	0	-0.41779978	0	0.01669121	0	0	-2.20883363	0.00000000
55.28000000	5.04963243	1.09513289	-3.27371540	0.00068951	0	-0.00053305	-88.16891702	697.23467427	-57.56322780	1.28831101	0	-0.41756076	0	-0.00490234	0	0	-2.25597214	0
55.29000000	4.95225262	1.33312294	-3.22424873	0.00116492	0	-0.00086872	-79.84924649	699.54446607	-59.07489200	1.28095623	0	-0.41725649	0	-0.00835648	0	0	-2.26944071	0
55.30000000	4.89416619	1.39589138	-3.21065098	0.00075789	0	-0.00056020	-72.70071019	698.58253136	-60.38502501	1.27399714	0	-0.41695696	0	-0.00544822	0	0	-2.32229358	-0.00000000
55.31000000	4.83966971	1.29762901	-3.24476474	0.00030417	0	-0.00022281	-66.71386972	695.00349788	-61.11112695	1.26726464	0	-0.41675507	0	-0.00219123	0	0	-2.41184963	0
